<svg width="64" height="64" viewBox="0 0 64 64" fill="none" xmlns="http://www.w3.org/2000/svg">
<path d="M61.4101 19.3802C53.6051 11.5895 43.0279 7.21387 32.0001 7.21387C20.9723 7.21387 10.395 11.5895 2.59009 19.3802C2.38901 19.5617 2.22691 19.7823 2.11363 20.0284C2.00035 20.2745 1.93826 20.541 1.93112 20.8119C1.92397 21.0827 1.97193 21.3522 2.07208 21.6039C2.17222 21.8556 2.32247 22.0844 2.51371 22.2763C2.70494 22.4682 2.93317 22.6193 3.18455 22.7203C3.43593 22.8214 3.70522 22.8703 3.97608 22.8641C4.24693 22.8579 4.51371 22.7968 4.76021 22.6843C5.00672 22.5719 5.22782 22.4106 5.41009 22.2102C12.4682 15.1693 22.0306 11.2153 32.0001 11.2153C41.9695 11.2153 51.532 15.1693 58.5901 22.2102C58.9712 22.5542 59.4699 22.7386 59.9832 22.7251C60.4964 22.7115 60.9847 22.5011 61.3471 22.1375C61.7095 21.7738 61.9182 21.2847 61.9299 20.7714C61.9416 20.2581 61.7555 19.76 61.4101 19.3802Z" fill="#781385" id="id_101"></path>
<path d="M10.5101 27.3001C10.1647 27.6799 9.97855 28.178 9.99027 28.6913C10.002 29.2046 10.2106 29.6937 10.573 30.0573C10.9354 30.421 11.4238 30.6314 11.937 30.6449C12.4502 30.6585 12.949 30.4741 13.3301 30.1301C18.2864 25.1874 25.0004 22.4118 32.0001 22.4118C38.9997 22.4118 45.7137 25.1874 50.6701 30.1301C51.0511 30.4741 51.5499 30.6585 52.0631 30.6449C52.5764 30.6314 53.0647 30.421 53.4271 30.0573C53.7895 29.6937 53.9982 29.2046 54.0099 28.6913C54.0216 28.178 53.8355 27.6799 53.4901 27.3001C47.7856 21.61 40.0573 18.4146 32.0001 18.4146C23.9429 18.4146 16.2146 21.61 10.5101 27.3001V27.3001Z" fill="#781385" id="id_102"></path>
<path d="M18.43 35.2204C18.0846 35.6002 17.8985 36.0984 17.9102 36.6116C17.9219 37.1249 18.1306 37.614 18.493 37.9777C18.8553 38.3413 19.3437 38.5517 19.8569 38.5653C20.3702 38.5788 20.8689 38.3945 21.25 38.0504C24.1033 35.2035 27.9694 33.6047 32 33.6047C36.0306 33.6047 39.8967 35.2035 42.75 38.0504C43.1311 38.3945 43.6298 38.5788 44.1431 38.5653C44.6563 38.5517 45.1446 38.3413 45.507 37.9777C45.8694 37.614 46.0781 37.1249 46.0898 36.6116C46.1015 36.0984 45.9154 35.6002 45.57 35.2204C41.9685 31.6261 37.0882 29.6074 32 29.6074C26.9118 29.6074 22.0315 31.6261 18.43 35.2204V35.2204Z" fill="#781385" id="id_103"></path>
<path d="M32 40.8003C29.8783 40.8003 27.8434 41.6431 26.3431 43.1434C24.8429 44.6437 24 46.6786 24 48.8003C24.41 59.3903 39.59 59.3903 40 48.8003C40 46.6786 39.1571 44.6437 37.6569 43.1434C36.1566 41.6431 34.1217 40.8003 32 40.8003Z" fill="#781385" id="id_104"></path>
</svg>